<?xml version="1.0" encoding="UTF-8"?>
<svg id="Layer_2" data-name="Layer 2" xmlns="http://www.w3.org/2000/svg" viewBox="0 0 377.92 56.8">
  <defs>
    <style>
      .cls-1 {
        fill: #e93012;
      }

      .cls-2 {
        fill: #111;
      }
    </style>
  </defs>
  <g id="Layer_1-2" data-name="Layer 1">
    <g>
      <g>
        <path class="cls-2" d="M28.18,42.11c4.28-.62,8.73-1.15,13.32-1.59l-9.5,16.28h-12.4l8.58-14.69ZM59.13,0h-6.37l-12.81,21.95c4.48-.94,9.08-1.72,13.77-2.36l2.23-3.81,1.92,3.29c3.87-.45,7.8-.8,11.78-1.05L59.13,0Zm22.69,38.88c-1.1,0-2.19-.01-3.27-.01-3.07,0-6.1,.03-9.07,.09l10.41,17.84h12.4l-10.46-17.92Z"/>
        <path class="cls-1" d="M115.04,40.21c0,9.07-7.27,16.43-16.31,16.58h0l-6.1-10.58h5.82c3.46,0,6.26-2.81,6.26-6.26s-2.81-6.26-6.26-6.26c-36.37-1.39-71.58,.71-98.45,8.54,23.53-13.64,55.16-19.12,85.11-19.12,3.46,0,6.26-2.81,6.26-6.26s-2.8-6.26-6.26-6.26h-13.05L65.96,0h19.78c8.99,0,16.29,7.3,16.29,16.29,0,2.67-.65,5.2-1.8,7.43,8.32,.89,14.8,7.94,14.8,16.49Z"/>
      </g>
      <g>
        <path class="cls-1" d="M355.95,11.32c-12.11,0-21.97,9.9-21.97,22.07s9.86,22.07,21.97,22.07,21.97-9.9,21.97-22.07-9.85-22.07-21.97-22.07Zm0,37.21c-8.01,0-14.53-6.79-14.53-15.14s6.52-15.14,14.53-15.14,14.53,6.79,14.53,15.14-6.51,15.14-14.53,15.14Z"/>
        <path class="cls-1" d="M321.47,31.1v18.64c-2.34,2.13-7.36,6.24-17.15,6.24-13.02,0-22.32-10.41-22.32-22.58s9.28-22.07,20.69-22.07h15.73v6.94h-15.73c-5.79,0-13.02,5.67-13.02,15.13,0,8.06,5.53,15.15,14.92,15.15,3.51,0,7.85-.8,9.7-2.68v-7.82h-8.43v-6.94h15.6Z"/>
        <path class="cls-1" d="M144.52,33.37c0,8.05,6.55,14.6,14.6,14.6h11.08v7.45h-11.08c-12.16,0-22.05-9.89-22.05-22.05s9.89-22.05,22.05-22.05h11.08v7.45h-11.08c-8.05,0-14.6,6.55-14.6,14.6Z"/>
        <path class="cls-1" d="M260.41,39.44c7.67-.93,11.49-7.43,11.49-13.67,0-7.92-6.45-14.37-14.39-14.37l-21.26-.08V55.39h7.45v-15.26h7.38l13.55,15.25h9.94l-14.15-15.94Zm-16.72-6.73v-13.94l13.81,.06c3.83,0,6.96,3.11,6.96,6.94s-3.13,6.94-6.96,6.94h-13.81Z"/>
        <path class="cls-1" d="M206.54,11.32h-8.52l-18.46,44.07h7.67l3.66-8.73h23.22l3.76,8.73h7.69l-19.02-44.07Zm-12.54,27.89l8.32-19.87,8.57,19.87h-16.89Z"/>
      </g>
    </g>
  </g>
</svg>